<?xml version="1.0" encoding="UTF-8"?>
<svg version="1.1" xmlns="http://www.w3.org/2000/svg" width="142" height="203">
<path d="M0 0 C0.495 1.98 0.495 1.98 1 4 C-5.93561055 8.83330558 -13.16085807 12.98872809 -20.5625 17.0625 C-23.7655338 18.83054421 -26.96456922 20.60225208 -30.14501953 22.41064453 C-31.90876477 23.392514 -33.6985655 24.33082829 -35.52294922 25.19482422 C-37.74162198 26.3222006 -39.26837139 27.21312787 -41 29 C-41.61170407 31.47613922 -41.61170407 31.47613922 -41.70532227 34.16821289 C-41.76849136 35.07205215 -41.83166046 35.97589142 -41.89674377 36.90711975 C-41.93081833 37.59777023 -41.96489288 38.28842072 -42 39 C-40.15269287 38.98428955 -40.15269287 38.98428955 -38.26806641 38.96826172 C-33.70966485 38.93212911 -29.15127602 38.90912415 -24.59277344 38.89013672 C-22.61781691 38.88006373 -20.64287534 38.86640479 -18.66796875 38.84912109 C-15.83329582 38.82492961 -12.99881962 38.81353009 -10.1640625 38.8046875 C-9.27756012 38.79436493 -8.39105774 38.78404236 -7.47769165 38.77340698 C-5.31714048 38.7730093 -3.15706282 38.87727466 -1 39 C1 41 1 41 1.24723816 43.3217926 C1.24581314 44.29140427 1.24438812 45.26101593 1.24291992 46.26000977 C1.24753487 47.90665367 1.24753487 47.90665367 1.25224304 49.58656311 C1.24146477 51.37096046 1.24146477 51.37096046 1.23046875 53.19140625 C1.23001053 54.40698715 1.22955231 55.62256805 1.2290802 56.87498474 C1.22605496 59.44816055 1.21816063 62.02133448 1.20581055 64.59448242 C1.18756053 68.54938184 1.18530075 72.50404727 1.18554688 76.45898438 C1.18063169 78.95312704 1.17480336 81.44726811 1.16796875 83.94140625 C1.16685593 85.13302872 1.1657431 86.32465118 1.16459656 87.55238342 C1.15821671 88.64699387 1.15183685 89.74160431 1.14526367 90.86938477 C1.14145187 91.83820084 1.13764008 92.80701691 1.13371277 93.80519104 C1 96 1 96 0 97 C-2.23387206 97.0996392 -4.47093859 97.12799795 -6.70703125 97.12939453 C-7.40782806 97.13114685 -8.10862488 97.13289917 -8.83065796 97.13470459 C-11.15796349 97.13912266 -13.48519364 97.13618529 -15.8125 97.1328125 C-17.42293309 97.13348555 -19.03336609 97.13445559 -20.64379883 97.13571167 C-24.02328455 97.13718858 -27.4027439 97.13503431 -30.78222656 97.13037109 C-35.12376505 97.1246738 -39.46524173 97.12795285 -43.80677795 97.13394356 C-47.13350901 97.13754936 -50.4602253 97.1364105 -53.78695679 97.13381577 C-55.38821418 97.13314655 -56.9894729 97.13397474 -58.59072876 97.13629532 C-60.82484511 97.13882216 -63.05886 97.13498085 -65.29296875 97.12939453 C-67.20372192 97.12820114 -67.20372192 97.12820114 -69.15307617 97.12698364 C-72 97 -72 97 -73 96 C-73.08631874 94.65732587 -73.10706473 93.31025678 -73.09765625 91.96484375 C-73.09443359 91.15595703 -73.09121094 90.34707031 -73.08789062 89.51367188 C-73.07951172 88.66353516 -73.07113281 87.81339844 -73.0625 86.9375 C-73.05798828 86.08349609 -73.05347656 85.22949219 -73.04882812 84.34960938 C-73.03700373 82.23304337 -73.01906769 80.11651315 -73 78 C-74.98 78 -76.96 78 -79 78 C-78.97679688 79.27617188 -78.95359375 80.55234375 -78.9296875 81.8671875 C-78.91093171 83.5364525 -78.89273131 85.2057238 -78.875 86.875 C-78.85824219 87.71675781 -78.84148437 88.55851562 -78.82421875 89.42578125 C-78.81777344 90.23144531 -78.81132813 91.03710938 -78.8046875 91.8671875 C-78.79421387 92.61081543 -78.78374023 93.35444336 -78.77294922 94.12060547 C-79 96 -79 96 -81 98 C-83.53125 98.23046875 -83.53125 98.23046875 -86.5 98.1875 C-87.96953125 98.17783203 -87.96953125 98.17783203 -89.46875 98.16796875 C-92 98 -92 98 -94 97 C-95.15030328 93.54909017 -95.12947134 90.85360188 -95.1328125 87.21484375 C-95.13376923 86.55795059 -95.13472595 85.90105743 -95.13571167 85.22425842 C-95.13639113 83.83822534 -95.13455314 82.45218905 -95.13037109 81.06616211 C-95.12501091 78.94182217 -95.1303283 76.81769283 -95.13671875 74.69335938 C-95.13605809 73.3463537 -95.13477719 71.99934815 -95.1328125 70.65234375 C-95.13168457 69.42507568 -95.13055664 68.19780762 -95.12939453 66.93334961 C-95 64 -95 64 -94 62 C-84.1 61.505 -84.1 61.505 -74 61 C-73.75053612 54.50842822 -73.75053612 54.50842822 -73.52197266 48.01611328 C-73.4863623 47.20899902 -73.45075195 46.40188477 -73.4140625 45.5703125 C-73.3826416 44.74289551 -73.3512207 43.91547852 -73.31884766 43.06298828 C-73 41 -73 41 -71 39 C-68.75341797 38.77294922 -68.75341797 38.77294922 -65.9921875 38.8046875 C-65.00605469 38.81113281 -64.01992187 38.81757812 -63.00390625 38.82421875 C-61.97136719 38.84097656 -60.93882813 38.85773438 -59.875 38.875 C-58.83472656 38.88402344 -57.79445312 38.89304688 -56.72265625 38.90234375 C-54.14820908 38.92596253 -51.57421788 38.95889851 -49 39 C-49.01160156 37.37578125 -49.01160156 37.37578125 -49.0234375 35.71875 C-48.9966 31.46053309 -48.80482344 28.88731202 -47 25 C-39.93364375 18.92113482 -31.33767762 14.68548588 -23.1875 10.25 C-20.80503436 8.94444327 -18.42411129 7.63609522 -16.04296875 6.328125 C-15.00164795 5.7599707 -13.96032715 5.19181641 -12.88745117 4.60644531 C-10.99635153 3.55432427 -9.13090641 2.45437225 -7.2980957 1.30371094 C-4.64770885 -0.19985496 -2.99878027 -0.25703831 0 0 Z M-67 46 C-67.0928726 47.41225046 -67.11746772 48.82908934 -67.11352539 50.24438477 C-67.11344986 51.14524307 -67.11337433 52.04610138 -67.11329651 52.97425842 C-67.10813522 53.95341721 -67.10297394 54.93257599 -67.09765625 55.94140625 C-67.0962413 56.93881332 -67.09482635 57.9362204 -67.09336853 58.96385193 C-67.08775114 62.16343124 -67.07519571 65.36294169 -67.0625 68.5625 C-67.05748724 70.72591045 -67.05292395 72.88932199 -67.04882812 75.05273438 C-67.03777607 80.36851325 -67.02102104 85.68425171 -67 91 C-60.59173316 92.15121304 -54.29147559 92.14459009 -47.79296875 92.1328125 C-46.63122635 92.13376923 -45.46948395 92.13472595 -44.27253723 92.13571167 C-41.82760565 92.13638998 -39.38267223 92.1345601 -36.93774414 92.13037109 C-33.18306484 92.12499365 -29.42850384 92.13034034 -25.67382812 92.13671875 C-23.29687474 92.13605838 -20.91992142 92.13477808 -18.54296875 92.1328125 C-16.85242622 92.13584885 -16.85242622 92.13584885 -15.12773132 92.13894653 C-14.08937637 92.13579437 -13.05102142 92.13264221 -11.98120117 92.12939453 C-11.06521652 92.12859894 -10.14923187 92.12780334 -9.20549011 92.12698364 C-6.95725774 92.14323789 -6.95725774 92.14323789 -5 91 C-4.97472938 84.60962769 -4.95716683 78.21926817 -4.94506836 71.82885742 C-4.94002692 69.65307127 -4.93319393 67.47728853 -4.92456055 65.30151367 C-4.91248662 62.18146933 -4.90676995 59.06146962 -4.90234375 55.94140625 C-4.89718246 54.96224747 -4.89202118 53.98308868 -4.88670349 52.97425842 C-4.88662796 52.07340012 -4.88655243 51.17254181 -4.88647461 50.24438477 C-4.884254 49.44718521 -4.88203339 48.64998566 -4.87974548 47.82862854 C-4.79949544 45.98077719 -4.79949544 45.98077719 -6 45 C-7.86635788 44.9008944 -9.73648194 44.87200739 -11.60546875 44.87060547 C-12.80341064 44.86745331 -14.00135254 44.86430115 -15.2355957 44.86105347 C-16.53972412 44.8630777 -17.84385254 44.86510193 -19.1875 44.8671875 C-20.52889015 44.8665144 -21.87028019 44.86554432 -23.21166992 44.86428833 C-26.02621621 44.86281164 -28.84073082 44.86496496 -31.65527344 44.86962891 C-35.27040631 44.87532619 -38.88546495 44.87204703 -42.50059509 44.86605644 C-45.27144942 44.86245003 -48.04228602 44.86358978 -50.81314087 44.86618423 C-52.79689583 44.86717967 -54.78065147 44.86413259 -56.7644043 44.86105347 C-57.96234619 44.86420563 -59.16028809 44.86735779 -60.39453125 44.87060547 C-61.98551636 44.87179886 -61.98551636 44.87179886 -63.60864258 44.87301636 C-65.95314943 44.73027721 -65.95314943 44.73027721 -67 46 Z M-89 68 C-89.0270491 71.06255961 -89.04686298 74.1248786 -89.0625 77.1875 C-89.07087891 78.05181641 -89.07925781 78.91613281 -89.08789062 79.80664062 C-89.10396812 84.00286769 -89.07559038 87.90936886 -88 92 C-87.01 91.67 -86.02 91.34 -85 91 C-84.93941406 89.71222656 -84.87882812 88.42445313 -84.81640625 87.09765625 C-84.73201753 85.41925841 -84.6473687 83.74087364 -84.5625 82.0625 C-84.50352539 80.78729492 -84.50352539 80.78729492 -84.44335938 79.48632812 C-84.40146484 78.67744141 -84.35957031 77.86855469 -84.31640625 77.03515625 C-84.26141968 75.91185913 -84.26141968 75.91185913 -84.20532227 74.76586914 C-84 73 -84 73 -83 72 C-81.31816052 71.76712992 -79.6287584 71.58735834 -77.9375 71.4375 C-76.55884766 71.31181641 -76.55884766 71.31181641 -75.15234375 71.18359375 C-74.44207031 71.12300781 -73.73179688 71.06242187 -73 71 C-73 70.01 -73 69.02 -73 68 C-74.35247384 67.80065578 -75.70715087 67.61625222 -77.0625 67.4375 C-77.81660156 67.33308594 -78.57070312 67.22867188 -79.34765625 67.12109375 C-82.66008614 66.96986352 -85.73574884 67.46061945 -89 68 Z " fill="#84E6F1" transform="translate(125,42)"/>
<path d="M0 0 C0.33 0 0.66 0 1 0 C1.02465504 4.39656173 1.04283842 8.7930872 1.05493164 13.18969727 C1.05997121 14.68644918 1.06680287 16.18319616 1.07543945 17.67993164 C1.08752159 19.82699807 1.09323191 21.97399962 1.09765625 24.12109375 C1.10551147 26.06133423 1.10551147 26.06133423 1.11352539 28.04077148 C1 31 1 31 0 32 C-2.0587768 32.27953219 -4.11728432 32.44734351 -6.1875 32.62109375 C-6.785625 32.74613281 -7.38375 32.87117188 -8 33 C-8.33 33.66 -8.66 34.32 -9 35 C-8.37351562 34.97679687 -7.74703125 34.95359375 -7.1015625 34.9296875 C-6.28429688 34.91164062 -5.46703125 34.89359375 -4.625 34.875 C-3.81289063 34.85179687 -3.00078125 34.82859375 -2.1640625 34.8046875 C0 35 0 35 2 37 C2.495 45.415 2.495 45.415 3 54 C26.1 54 49.2 54 73 54 C73 36.18 73 18.36 73 0 C73.33 0 73.66 0 74 0 C74.02526563 7.81452752 74.04283105 15.62904458 74.05493164 23.44360352 C74.05997383 26.10441481 74.06680736 28.76522332 74.07543945 31.42602539 C74.08751009 35.24105516 74.09322929 39.05604844 74.09765625 42.87109375 C74.10281754 44.06899033 74.10797882 45.2668869 74.11329651 46.50108337 C74.11337204 47.6021492 74.11344757 48.70321503 74.11352539 49.83764648 C74.115746 50.81249496 74.11796661 51.78734344 74.12025452 52.79173279 C74 55 74 55 73 56 C70.76612794 56.0996392 68.52906141 56.12799795 66.29296875 56.12939453 C65.59217194 56.13114685 64.89137512 56.13289917 64.16934204 56.13470459 C61.84203651 56.13912266 59.51480636 56.13618529 57.1875 56.1328125 C55.57706691 56.13348555 53.96663391 56.13445559 52.35620117 56.13571167 C48.97671545 56.13718858 45.5972561 56.13503431 42.21777344 56.13037109 C37.87623495 56.1246738 33.53475827 56.12795285 29.19322205 56.13394356 C25.86649099 56.13754936 22.5397747 56.1364105 19.21304321 56.13381577 C17.61178582 56.13314655 16.0105271 56.13397474 14.40927124 56.13629532 C12.17515489 56.13882216 9.94114 56.13498085 7.70703125 56.12939453 C5.79627808 56.12820114 5.79627808 56.12820114 3.84692383 56.12698364 C1 56 1 56 0 55 C-0.08631874 53.65732587 -0.10706473 52.31025678 -0.09765625 50.96484375 C-0.09443359 50.15595703 -0.09121094 49.34707031 -0.08789062 48.51367188 C-0.07951172 47.66353516 -0.07113281 46.81339844 -0.0625 45.9375 C-0.05798828 45.08349609 -0.05347656 44.22949219 -0.04882812 43.34960938 C-0.03700373 41.23304337 -0.01906769 39.11651315 0 37 C-1.98 37 -3.96 37 -6 37 C-5.97679688 38.27617188 -5.95359375 39.55234375 -5.9296875 40.8671875 C-5.91093171 42.5364525 -5.89273131 44.2057238 -5.875 45.875 C-5.85824219 46.71675781 -5.84148438 47.55851562 -5.82421875 48.42578125 C-5.81777344 49.23144531 -5.81132813 50.03710938 -5.8046875 50.8671875 C-5.79421387 51.61081543 -5.78374023 52.35444336 -5.77294922 53.12060547 C-6 55 -6 55 -8 57 C-10.53125 57.23046875 -10.53125 57.23046875 -13.5 57.1875 C-14.96953125 57.17783203 -14.96953125 57.17783203 -16.46875 57.16796875 C-19 57 -19 57 -21 56 C-22.15030328 52.54909017 -22.12947134 49.85360188 -22.1328125 46.21484375 C-22.13376923 45.55795059 -22.13472595 44.90105743 -22.13571167 44.22425842 C-22.13639113 42.83822534 -22.13455314 41.45218905 -22.13037109 40.06616211 C-22.12501091 37.94182217 -22.1303283 35.81769283 -22.13671875 33.69335938 C-22.13605809 32.3463537 -22.13477719 30.99934815 -22.1328125 29.65234375 C-22.13168457 28.42507568 -22.13055664 27.19780762 -22.12939453 25.93334961 C-22 23 -22 23 -21 21 C-11.1 20.505 -11.1 20.505 -1 20 C-0.67 13.4 -0.34 6.8 0 0 Z M-16 27 C-16.0270491 30.06255961 -16.04686298 33.1248786 -16.0625 36.1875 C-16.07087891 37.05181641 -16.07925781 37.91613281 -16.08789062 38.80664062 C-16.10396812 43.00286769 -16.07559038 46.90936886 -15 51 C-14.01 50.67 -13.02 50.34 -12 50 C-11.93941406 48.71222656 -11.87882812 47.42445313 -11.81640625 46.09765625 C-11.73201753 44.41925841 -11.6473687 42.74087364 -11.5625 41.0625 C-11.50352539 39.78729492 -11.50352539 39.78729492 -11.44335938 38.48632812 C-11.40146484 37.67744141 -11.35957031 36.86855469 -11.31640625 36.03515625 C-11.26141968 34.91185913 -11.26141968 34.91185913 -11.20532227 33.76586914 C-11 32 -11 32 -10 31 C-8.31816052 30.76712992 -6.6287584 30.58735834 -4.9375 30.4375 C-3.55884766 30.31181641 -3.55884766 30.31181641 -2.15234375 30.18359375 C-1.44207031 30.12300781 -0.73179688 30.06242187 0 30 C0 29.01 0 28.02 0 27 C-1.35247384 26.80065578 -2.70715087 26.61625222 -4.0625 26.4375 C-4.81660156 26.33308594 -5.57070313 26.22867188 -6.34765625 26.12109375 C-9.66008614 25.96986352 -12.73574884 26.46061945 -16 27 Z " fill="#9BE7EF" transform="translate(52,83)"/>
<path d="M0 0 C0.495 1.98 0.495 1.98 1 4 C-5.93561055 8.83330558 -13.16085807 12.98872809 -20.5625 17.0625 C-23.7655338 18.83054421 -26.96456922 20.60225208 -30.14501953 22.41064453 C-31.90876477 23.392514 -33.6985655 24.33082829 -35.52294922 25.19482422 C-38.028886 26.3695463 -38.028886 26.3695463 -41 29 C-41.33 32.3 -41.66 35.6 -42 39 C-28.47 39 -14.94 39 -1 39 C-1 39.33 -1 39.66 -1 40 C-24.1 40 -47.2 40 -71 40 C-71 39.67 -71 39.34 -71 39 C-63.74 39 -56.48 39 -49 39 C-49 36.69 -49 34.38 -49 32 C-48.59683154 28.23709437 -48.06732856 25.91817426 -45.1394043 23.39941406 C-38.07480182 18.54508407 -30.70843507 14.34303979 -23.1875 10.25 C-20.80503436 8.94444327 -18.42411129 7.63609522 -16.04296875 6.328125 C-15.00164795 5.7599707 -13.96032715 5.19181641 -12.88745117 4.60644531 C-10.99635153 3.55432427 -9.13090641 2.45437225 -7.2980957 1.30371094 C-4.64770885 -0.19985496 -2.99878027 -0.25703831 0 0 Z " fill="#94E8F0" transform="translate(125,42)"/>
<path d="M0 0 C13.53 0 27.06 0 41 0 C41 18.15 41 36.3 41 55 C38.14429301 56.4278535 35.72285644 56.11941486 32.53076172 56.11352539 C31.53545944 56.11374443 31.53545944 56.11374443 30.52005005 56.1139679 C28.32322947 56.11327031 26.1264933 56.10548514 23.9296875 56.09765625 C22.40796963 56.09579152 20.88625116 56.09436788 19.36453247 56.09336853 C15.35648953 56.08954767 11.34848274 56.07972104 7.3404541 56.06866455 C3.25171396 56.05844118 -0.83703201 56.05386892 -4.92578125 56.04882812 C-12.95053744 56.0380984 -20.97526422 56.02102713 -29 56 C-29 55.67 -29 55.34 -29 55 C-8.21 55 12.58 55 34 55 C34 54.34 34 53.68 34 53 C34.66 52.67 35.32 52.34 36 52 C36 36.16 36 20.32 36 4 C36.99 4 37.98 4 39 4 C39 3.01 39 2.02 39 1 C26.13 1 13.26 1 0 1 C0 0.67 0 0.34 0 0 Z " fill="#76E0EB" transform="translate(84,82)"/>
<path d="M0 0 C2.1875 0 2.1875 0 5 1 C8.200883 4.54692441 9.82887884 7.99038515 10.625 12.6875 C10 16 10 16 7.9375 19 C5 21 5 21 1.375 21 C-3.32352941 19.60784314 -3.32352941 19.60784314 -5 17 C-6.67837788 12.80405529 -5.53723794 9.85661921 -3.90234375 5.87109375 C-2.84621847 3.68111969 -1.60079632 1.82948151 0 0 Z M2 9 C1.67 10.65 1.34 12.3 1 14 C1.99 14 2.98 14 4 14 C3.67 12.35 3.34 10.7 3 9 C2.67 9 2.34 9 2 9 Z " fill="#6FE3EE" transform="translate(36,141)"/>
<path d="M0 0 C2.64 0 5.28 0 8 0 C8.042721 1.66611905 8.04063832 3.33382885 8 5 C6.19533017 6.80466983 3.26897184 6.41492558 0.8125 6.62109375 C0.214375 6.74613281 -0.38375 6.87117188 -1 7 C-1.33 7.66 -1.66 8.32 -2 9 C-1.36191406 8.98839844 -0.72382812 8.97679688 -0.06640625 8.96484375 C1.17302734 8.95130859 1.17302734 8.95130859 2.4375 8.9375 C3.26121094 8.92589844 4.08492187 8.91429688 4.93359375 8.90234375 C7 9 7 9 8 10 C8.08651611 11.41570123 8.10704904 12.835595 8.09765625 14.25390625 C8.09443359 15.10791016 8.09121094 15.96191406 8.08789062 16.84179688 C8.07951172 17.73962891 8.07113281 18.63746094 8.0625 19.5625 C8.05798828 20.46419922 8.05347656 21.36589844 8.04882812 22.29492188 C8.03700225 24.53001314 8.0205222 26.76497437 8 29 C7.67 29 7.34 29 7 29 C7 23.06 7 17.12 7 11 C5.02 11 3.04 11 1 11 C1 16.94 1 22.88 1 29 C0.67 29 0.34 29 0 29 C-0.66 23.06 -1.32 17.12 -2 11 C-2.33 15.62 -2.66 20.24 -3 25 C-4.32 24.67 -5.64 24.34 -7 24 C-6.34 24 -5.68 24 -5 24 C-5.02320313 22.72382813 -5.04640625 21.44765625 -5.0703125 20.1328125 C-5.08906829 18.4635475 -5.10726869 16.7942762 -5.125 15.125 C-5.14175781 14.28324219 -5.15851562 13.44148438 -5.17578125 12.57421875 C-5.18544922 11.36572266 -5.18544922 11.36572266 -5.1953125 10.1328125 C-5.21102295 9.01737061 -5.21102295 9.01737061 -5.22705078 7.87939453 C-5 6 -5 6 -3 4 C-0.6171875 3.8046875 -0.6171875 3.8046875 2.125 3.875 C3.49011719 3.90207031 3.49011719 3.90207031 4.8828125 3.9296875 C5.58148438 3.95289062 6.28015625 3.97609375 7 4 C7 3.01 7 2.02 7 1 C4.69 1 2.38 1 0 1 C0 0.67 0 0.34 0 0 Z " fill="#AFEFF4" transform="translate(45,109)"/>
<path d="M0 0 C0.66 0 1.32 0 2 0 C1.690625 0.639375 1.38125 1.27875 1.0625 1.9375 C-0.31935403 5.92049104 -0.6536543 9.81650849 -1 14 C-0.34 14 0.32 14 1 14 C1 11.36 1 8.72 1 6 C1.66 6 2.32 6 3 6 C3 9.3 3 12.6 3 16 C16.53 16 30.06 16 44 16 C44 16.33 44 16.66 44 17 C20.9 17 -2.2 17 -26 17 C-26 16.67 -26 16.34 -26 16 C-18.74 16 -11.48 16 -4 16 C-4 13.69 -4 11.38 -4 9 C-2.5106383 2.5106383 -2.5106383 2.5106383 0 0 Z " fill="#B8F1F6" transform="translate(80,65)"/>
<path d="M0 0 C2.25 0.125 2.25 0.125 5 1 C9 6.08108108 9 6.08108108 9 9 C8.01 9 7.02 9 6 9 C5.67 10.98 5.34 12.96 5 15 C3 14 3 14 1.875 10.9375 C1.58625 9.968125 1.2975 8.99875 1 8 C1.99 7.01 2.98 6.02 4 5 C3.01 4.67 2.02 4.34 1 4 C0.34 4.66 -0.32 5.32 -1 6 C-1 6.66 -1 7.32 -1 8 C-1.66 8 -2.32 8 -3 8 C-2.67 11.3 -2.34 14.6 -2 18 C0.97 18.33 3.94 18.66 7 19 C6.34 19.66 5.68 20.32 5 21 C1.61953127 20.8156108 -1.01736487 20.65509008 -3.875 18.75 C-5.43015736 16.33086634 -5.87074346 14.90827206 -6 12 C-4.83031522 7.48321722 -3.09484166 3.5369619 0 0 Z " fill="#A2E8EF" transform="translate(36,141)"/>
<path d="M0 0 C7.92 0 15.84 0 24 0 C24 0.33 24 0.66 24 1 C13.605 1.495 13.605 1.495 3 2 C2.67 2.66 2.34 3.32 2 4 C2.99 4.33 3.98 4.66 5 5 C4.67 10.94 4.34 16.88 4 23 C2.35 23 0.7 23 -1 23 C-0.67 15.41 -0.34 7.82 0 0 Z " fill="#72E2EE" transform="translate(53,82)"/>
<path d="M0 0 C-0.66 0 -1.32 0 -2 0 C-2 0.66 -2 1.32 -2 2 C-3.98 2.33 -5.96 2.66 -8 3 C-8.33 3.99 -8.66 4.98 -9 6 C-11.32671865 7.01529541 -13.6603447 8.01488198 -16 9 C-17.93395001 11.90092502 -18.30131941 12.89674737 -18.625 16.1875 C-18.74875 17.445625 -18.8725 18.70375 -19 20 C-19.66 20 -20.32 20 -21 20 C-21.53993763 13.38576402 -20.99185395 9.39439723 -17 4 C-12.26844463 0.18846929 -5.88103695 -1.8337309 0 0 Z " fill="#7DE5F0" transform="translate(100,59)"/>
<path d="M0 0 C0.33 0 0.66 0 1 0 C1.82574651 6.39953542 2.09088753 12.54698539 2 19 C-1.63 18.67 -5.26 18.34 -9 18 C-9 17.67 -9 17.34 -9 17 C-7.02 17 -5.04 17 -3 17 C-3 16.34 -3 15.68 -3 15 C-2.34 15 -1.68 15 -1 15 C-1.01160156 14.00097656 -1.02320313 13.00195312 -1.03515625 11.97265625 C-1.04417969 10.68230469 -1.05320312 9.39195312 -1.0625 8.0625 C-1.07410156 6.77472656 -1.08570313 5.48695312 -1.09765625 4.16015625 C-1 1 -1 1 0 0 Z " fill="#6FE3EF" transform="translate(43,119)"/>
<path d="M0 0 C7.92 0 15.84 0 24 0 C24 0.33 24 0.66 24 1 C13.605 1.495 13.605 1.495 3 2 C1.88176185 4.23647631 1.80603939 5.64891529 1.68359375 8.1328125 C1.62075195 9.34130859 1.62075195 9.34130859 1.55664062 10.57421875 C1.51732422 11.41597656 1.47800781 12.25773437 1.4375 13.125 C1.39431641 13.97449219 1.35113281 14.82398437 1.30664062 15.69921875 C1.20045764 17.79928223 1.09971503 19.89961948 1 22 C0.67 22 0.34 22 0 22 C0 14.74 0 7.48 0 0 Z " fill="#82DBE5" transform="translate(53,82)"/>
<path d="M0 0 C2.0625 0.4375 2.0625 0.4375 4 1 C4.36923077 7.52307692 4.36923077 7.52307692 2.5 9.9375 C2.005 10.288125 1.51 10.63875 1 11 C1 10.01 1 9.02 1 8 C0.34 8 -0.32 8 -1 8 C-1.04241723 5.66705225 -1.04092937 3.33297433 -1 1 C-0.67 0.67 -0.34 0.34 0 0 Z " fill="#87E7EF" transform="translate(42,149)"/>
<path d="M0 0 C0.33 0.99 0.66 1.98 1 3 C0.01 3.66 -0.98 4.32 -2 5 C-2.36297936 6.97747122 -2.36297936 6.97747122 -2.1875 9.125 C-2.125625 10.40375 -2.06375 11.6825 -2 13 C-2.99 12.67 -3.98 12.34 -5 12 C-5.33 8.7 -5.66 5.4 -6 2 C-3 0 -3 0 0 0 Z " fill="#81E6F0" transform="translate(40,144)"/>
<path d="M0 0 C0.66 0 1.32 0 2 0 C2 1.32 2 2.64 2 4 C-3.28 4 -8.56 4 -14 4 C-13.67 3.34 -13.34 2.68 -13 2 C-8.71 2 -4.42 2 0 2 C0 1.34 0 0.68 0 0 Z " fill="#80DDE6" transform="translate(50,105)"/>
<path d="M0 0 C0.33 0.99 0.66 1.98 1 3 C0.34 3 -0.32 3 -1 3 C-1 3.66 -1 4.32 -1 5 C-2.98 5 -4.96 5 -7 5 C-7.33 4.34 -7.66 3.68 -8 3 C-7.01 3 -6.02 3 -5 3 C-5 2.34 -5 1.68 -5 1 C-3.35 0.67 -1.7 0.34 0 0 Z " fill="#73E2EC" transform="translate(111,50)"/>
<path d="M0 0 C0.33 1.32 0.66 2.64 1 4 C0.01 4.66 -0.98 5.32 -2 6 C-2 4.68 -2 3.36 -2 2 C-3.98 2.33 -5.96 2.66 -8 3 C-5.53387212 -0.1151089 -3.89156016 -0.31553191 0 0 Z " fill="#A4E8EE" transform="translate(125,42)"/>
<path d="M0 0 C-0.66 0 -1.32 0 -2 0 C-2 0.66 -2 1.32 -2 2 C-8.75 3.125 -8.75 3.125 -11 2 C-3.57142857 -1.57142857 -3.57142857 -1.57142857 0 0 Z " fill="#70E2EB" transform="translate(100,59)"/>
<path d="M0 0 C1.32 0 2.64 0 4 0 C4 1.65 4 3.3 4 5 C2.35 4.67 0.7 4.34 -1 4 C-0.67 2.68 -0.34 1.36 0 0 Z " fill="#95E9EB" transform="translate(36,141)"/>
</svg>
