<?xml version="1.0" standalone="no"?>
<!DOCTYPE svg PUBLIC "-//W3C//DTD SVG 20010904//EN"
 "http://www.w3.org/TR/2001/REC-SVG-20010904/DTD/svg10.dtd">
<svg version="1.0" xmlns="http://www.w3.org/2000/svg"
 width="308.000000pt" height="309.000000pt" viewBox="0 0 308.000000 309.000000"
 preserveAspectRatio="xMidYMid meet">

<g transform="translate(0.000000,309.000000) scale(0.100000,-0.100000)"
fill="#000000" stroke="none">
<path d="M191 2733 c-19 -9 -47 -37 -62 -62 l-29 -45 0 -1121 0 -1121 29 -45
c54 -86 -60 -79 1344 -79 l1244 0 34 23 c18 12 44 38 56 56 l23 34 0 1132 0
1132 -22 33 c-13 18 -36 43 -51 54 l-28 21 -1252 2 c-1155 2 -1255 1 -1286
-14z m1523 -338 c165 -48 376 -176 376 -229 0 -45 -7 -46 -333 -46 -172 0
-340 -5 -380 -11 -230 -35 -413 -183 -496 -402 -16 -41 -41 -167 -41 -204 0
-22 -6 -36 -19 -43 -30 -15 -252 -12 -274 4 -43 33 -7 261 69 425 36 79 92
169 118 190 9 8 16 18 16 23 0 14 103 107 174 156 120 86 252 140 391 163 28
4 109 6 180 4 102 -3 149 -10 219 -30z m553 -432 c49 -72 96 -197 91 -244 -3
-29 -7 -34 -38 -41 -19 -4 -226 -7 -460 -6 -234 1 -436 -2 -450 -6 -64 -21
-120 -89 -120 -145 0 -15 -7 -37 -16 -49 -14 -21 -22 -22 -141 -22 -145 0
-163 8 -163 69 1 146 124 342 260 411 111 56 130 58 592 59 l427 1 18 -27z
m-338 -429 c22 -16 23 -21 17 -84 -6 -69 -33 -148 -73 -212 -37 -61 -129 -145
-185 -172 -116 -54 -141 -56 -600 -54 l-423 3 -40 80 c-48 94 -65 142 -65 177
0 53 -3 53 494 56 402 2 463 5 486 19 51 32 71 58 86 113 26 88 29 90 163 90
92 0 122 -3 140 -16z m450 -5 c16 -17 19 -31 15 -73 -18 -180 -50 -288 -126
-425 -50 -88 -155 -206 -248 -275 -181 -135 -424 -204 -650 -185 -173 15 -332
78 -473 187 -65 51 -79 79 -52 106 15 14 55 16 341 16 369 0 415 6 550 70 44
22 104 60 132 85 49 44 125 143 149 195 25 53 51 150 58 216 11 102 14 104
161 104 113 0 125 -2 143 -21z"/>
</g>
</svg>
